<?xml version="1.0" standalone="no"?>
<!DOCTYPE svg PUBLIC "-//W3C//DTD SVG 20010904//EN"
 "http://www.w3.org/TR/2001/REC-SVG-20010904/DTD/svg10.dtd">
<svg version="1.0" xmlns="http://www.w3.org/2000/svg"
 width="500.000000pt" height="500.000000pt" viewBox="0 0 500.000000 500.000000"
 preserveAspectRatio="xMidYMid meet">
<metadata>
Created by potrace 1.14, written by Peter Selinger 2001-2017
</metadata>
<g transform="translate(0.000000,500.000000) scale(0.100000,-0.100000)"
fill="#000000" stroke="none">
<path d="M0 2500 l0 -2500 779 0 c614 0 780 3 783 13 2 6 1 54 -2 105 -3 50
-2 92 3 92 4 0 7 9 7 20 0 11 -4 20 -9 20 -4 0 -11 30 -14 68 -9 97 -31 163
-82 237 -53 77 -56 90 -14 49 47 -44 70 -81 95 -148 l23 -61 0 42 c1 23 6 45
11 48 17 11 277 6 307 -6 64 -24 122 -109 123 -180 0 -19 -12 -59 -26 -87 -33
-67 -89 -102 -174 -109 l-60 -6 0 -36 c0 -21 -6 -43 -12 -49 -10 -10 13 -12
111 -10 l124 3 46 83 c25 46 47 79 49 73 2 -5 -13 -40 -32 -77 -20 -37 -36
-71 -36 -76 0 -4 36 -8 79 -8 l79 0 -29 60 c-27 57 -30 90 -5 90 7 0 12 26 13
73 2 59 1 68 -9 49 -21 -43 -28 -22 -8 28 13 32 20 74 20 116 0 59 2 65 24 76
21 9 27 22 37 82 16 93 27 122 40 109 9 -9 4 -64 -17 -160 -6 -30 -5 -32 17
-28 28 6 31 11 70 118 37 103 69 137 129 137 47 0 51 6 76 112 11 46 24 78 32
78 16 0 16 -7 -13 -113 -14 -50 -47 -193 -74 -317 -28 -124 -53 -233 -56 -243
-5 -11 -18 -17 -40 -17 -21 0 -35 -6 -39 -16 -9 -24 -9 -24 30 -24 21 0 33 -4
29 -10 -3 -5 2 -10 12 -10 11 0 24 -5 31 -12 16 -16 16 -150 0 -166 -9 -9 6
-12 70 -12 79 0 82 1 72 20 -8 15 -6 24 10 40 30 30 25 47 -15 54 -19 4 -47
18 -62 32 l-28 25 50 -7 c28 -3 59 -8 70 -11 11 -3 17 -2 13 2 -4 4 3 16 15
26 22 18 22 18 -10 7 -28 -11 -35 -10 -50 5 -16 16 -15 17 32 17 39 0 53 4 63
20 12 20 10 20 -97 20 l-110 0 6 37 c3 21 15 86 28 144 42 193 110 313 220
391 29 21 56 46 60 56 4 9 9 71 12 137 7 196 41 252 149 243 30 -3 57 -7 60
-11 12 -12 43 -227 50 -347 10 -184 -35 -631 -66 -650 -9 -5 -5 -20 11 -51 23
-43 24 -43 27 -17 3 29 22 40 22 13 0 -8 14 -30 30 -48 35 -40 38 -63 10 -72
-11 -3 -20 -11 -20 -16 0 -13 24 -11 37 2 9 9 22 7 54 -5 23 -9 44 -14 47 -11
6 6 7 5 -32 25 -42 21 -42 36 -2 50 44 14 46 36 9 67 l-28 22 28 1 c20 0 27 5
27 20 0 13 -7 20 -20 20 -20 0 -28 16 -10 22 5 1 -2 22 -16 46 -22 36 -30 42
-58 42 -20 0 -36 6 -39 14 -7 18 3 86 12 86 4 0 5 28 3 62 -4 55 -3 60 13 55
9 -4 25 -7 36 -7 13 0 25 -13 36 -40 17 -38 35 -50 48 -31 3 6 -1 13 -8 18 -8
4 -19 18 -25 29 -9 17 -8 25 7 38 9 9 28 16 40 16 12 0 32 5 44 11 18 10 24 8
44 -16 33 -38 28 -76 -14 -95 -18 -8 -33 -17 -33 -20 0 -3 10 -16 21 -30 l21
-25 -6 26 c-4 20 0 29 19 39 14 7 25 17 25 22 0 5 9 4 19 -2 11 -5 42 -10 70
-10 44 0 51 3 51 19 0 11 4 23 10 26 6 4 10 -14 10 -47 0 -40 -8 -66 -30 -106
-19 -36 -24 -52 -15 -48 12 4 14 0 9 -22 -11 -52 -12 -54 -34 -42 -22 12 -27
1 -8 -18 9 -9 7 -12 -10 -12 -12 0 -23 -3 -23 -7 -6 -37 -4 -55 7 -64 15 -12
20 -54 5 -45 -5 3 -11 -3 -14 -14 -3 -10 0 -21 6 -23 7 -2 5 -19 -6 -50 l-16
-47 50 0 c42 0 49 3 49 20 0 15 7 20 26 20 21 0 25 -4 21 -20 -5 -20 0 -20
744 -20 l749 0 0 2500 0 2500 -2500 0 -2500 0 0 -2500z m3243 2138 c24 -29 49
-63 56 -75 7 -14 11 -93 11 -228 0 -174 -2 -207 -15 -211 -33 -13 -45 15 -45
102 l0 84 -64 0 c-76 0 -76 -1 -76 -106 0 -59 -3 -76 -16 -81 -32 -12 -39 15
-42 183 -5 225 -3 237 64 318 30 36 61 66 68 66 8 0 34 -24 59 -52z m-1541
-33 c16 -38 43 -110 60 -158 17 -48 34 -84 38 -80 4 4 22 49 39 98 69 196 76
210 99 213 15 2 23 -3 27 -20 3 -13 4 -135 3 -272 -3 -226 -5 -250 -21 -260
-33 -20 -38 10 -35 201 2 100 0 179 -3 175 -4 -4 -26 -55 -49 -114 -23 -59
-45 -110 -50 -113 -21 -13 -40 14 -81 118 l-44 112 -3 -187 c-2 -164 -4 -187
-19 -193 -38 -14 -43 17 -43 273 0 153 4 251 11 263 18 35 41 17 71 -56z m712
59 c12 -32 -13 -44 -90 -44 l-74 0 0 -80 0 -80 75 0 c59 0 77 -3 82 -16 9 -25
-13 -38 -69 -40 -29 -1 -61 -2 -70 -3 -16 -1 -18 -12 -18 -91 0 -111 14 -130
96 -130 60 0 86 -19 63 -46 -18 -22 -124 -14 -164 12 -49 32 -55 63 -55 302 0
120 3 222 7 225 3 4 52 7 109 7 85 0 103 -3 108 -16z m440 1 c11 -30 -5 -45
-50 -45 l-44 0 -1 -212 c-1 -117 -1 -217 0 -222 1 -5 -1 -22 -4 -38 -5 -23
-12 -28 -28 -26 -22 3 -22 6 -27 248 l-5 245 -43 3 c-44 3 -59 18 -48 47 4 12
28 15 125 15 96 0 120 -3 125 -15z m966 -664 c52 -36 60 -70 60 -264 0 -201
-7 -231 -65 -267 -61 -38 -131 -22 -172 39 -22 32 -23 43 -23 228 0 208 6 240
52 264 58 31 103 31 148 0z m-3085 -5 c45 -29 65 -74 65 -144 0 -114 -40 -163
-140 -172 l-55 -5 -3 -107 c-2 -89 -5 -107 -20 -113 -37 -14 -42 17 -42 278 0
162 4 255 11 269 10 19 18 20 84 16 46 -3 84 -11 100 -22z m490 12 c14 -6 35
-26 46 -45 19 -30 20 -48 19 -225 -1 -211 -5 -228 -59 -265 -59 -40 -126 -28
-173 32 -22 29 -23 35 -23 238 l0 209 37 34 c31 28 45 34 82 34 25 0 57 -5 71
-12z m369 -4 c3 -9 6 -65 6 -126 l0 -110 32 6 c55 11 68 32 102 158 20 76 37
98 61 78 8 -7 15 -20 15 -28 0 -36 -54 -185 -77 -213 l-25 -30 24 -23 c23 -24
61 -132 74 -213 5 -33 3 -41 -12 -47 -27 -10 -39 11 -68 119 -28 108 -47 135
-97 135 l-29 0 0 -119 c0 -93 -3 -121 -15 -131 -12 -10 -18 -10 -30 0 -13 10
-15 54 -15 280 0 146 3 270 7 273 12 13 41 7 47 -9z m660 6 c14 -5 26 -16 26
-24 0 -25 -38 -38 -103 -35 l-62 3 -3 -77 -3 -77 75 0 c66 0 75 -2 81 -20 11
-33 -3 -40 -81 -40 l-74 0 0 -88 c0 -117 10 -132 89 -132 61 0 89 -16 78 -44
-17 -44 -149 -24 -197 30 l-30 35 0 234 c0 214 1 234 18 238 33 9 161 7 186
-3z m326 -42 c13 -29 40 -100 60 -158 21 -57 41 -105 46 -107 5 -2 22 34 38
80 15 45 39 114 53 154 25 73 44 93 69 72 11 -9 14 -64 14 -274 0 -276 -3
-295 -45 -279 -16 6 -17 24 -14 201 4 187 3 192 -13 156 -33 -77 -68 -168 -68
-180 0 -13 -35 -27 -49 -19 -5 3 -26 50 -46 103 -21 54 -42 102 -46 108 -5 5
-9 -69 -9 -172 0 -154 -2 -183 -16 -194 -14 -11 -18 -10 -30 6 -11 15 -14 71
-14 268 0 246 5 287 34 287 7 0 24 -24 36 -52z m734 31 c51 -40 56 -63 56
-259 0 -149 -3 -188 -17 -217 -33 -70 -119 -94 -184 -50 -55 37 -59 52 -59
267 0 176 2 198 19 224 27 40 57 55 112 56 32 0 54 -6 73 -21z m908 -99 c27
-63 62 -158 79 -210 41 -126 51 -146 44 -95 -9 73 -18 373 -11 400 5 20 12 26
29 23 l22 -3 3 -271 c2 -236 0 -273 -13 -284 -13 -11 -18 -11 -30 1 -15 15
-104 234 -137 338 -26 79 -43 103 -34 46 4 -22 9 -112 12 -200 6 -170 -1 -204
-39 -189 -15 6 -17 30 -17 278 0 150 3 276 7 280 20 20 41 -8 85 -114z m-1545
-785 l28 -35 60 29 c33 16 77 32 97 36 l38 7 -2 -42 c-1 -34 3 -47 21 -61 27
-22 83 -39 132 -39 20 0 57 -3 82 -6 41 -6 45 -9 37 -25 -27 -50 15 -113 92
-138 32 -11 34 -14 34 -59 0 -27 9 -64 21 -87 11 -22 23 -53 27 -70 6 -22 -7
-10 -50 50 -193 270 -379 390 -577 371 -157 -14 -302 -100 -485 -284 -68 -68
-126 -121 -129 -118 -16 16 152 206 232 263 16 12 27 25 23 29 -20 19 -178
-125 -255 -232 -32 -45 -43 -54 -70 -54 l-32 0 28 63 c16 34 31 76 35 92 9 39
57 145 65 145 3 0 11 -10 16 -22 17 -39 50 -34 92 13 111 123 130 139 162 139
18 0 41 -5 53 -11 16 -9 24 -7 41 9 44 39 102 72 128 72 19 0 36 -11 56 -35z
m226 -160 c143 -50 258 -141 376 -299 117 -155 178 -289 215 -470 26 -125 16
-119 -19 14 -39 146 -63 206 -128 321 -94 166 -229 302 -376 377 -162 84 -334
79 -511 -14 -61 -32 -166 -121 -156 -132 3 -3 34 14 68 36 198 129 405 146
604 51 121 -59 238 -194 353 -410 106 -201 237 -591 270 -809 14 -90 23 -185
17 -179 -3 3 -25 89 -50 191 -136 561 -237 789 -446 999 -97 97 -149 131 -238
154 -63 16 -225 22 -278 10 -140 -32 -272 -95 -372 -176 -60 -48 -64 -50 -77
-32 -8 10 -15 24 -15 31 0 8 39 53 88 102 197 198 316 258 517 259 71 0 105
-5 158 -24z m-974 -220 c-3 -75 -3 -75 -31 -75 -16 0 -31 6 -34 13 -8 21 46
137 63 137 2 0 3 -34 2 -75z m795 39 c9 -3 16 -15 16 -26 0 -17 -4 -19 -32
-13 -18 4 -39 12 -47 19 -11 9 -9 12 15 17 16 4 30 7 31 8 1 0 8 -2 17 -5z
m-84 -35 c7 -11 9 -24 5 -27 -3 -3 -35 -8 -71 -10 -64 -4 -66 -4 -62 19 2 17
11 26 33 30 59 13 84 10 95 -12z m188 -14 c11 -23 10 -25 -16 -25 -36 0 -54
13 -46 33 10 26 49 21 62 -8z m97 0 c85 -41 78 -85 -8 -53 -30 10 -45 23 -54
46 -16 39 -9 40 62 7z m-473 -55 l-10 -25 -12 28 c-7 15 -17 27 -22 27 -19 0
-6 17 20 26 23 8 27 7 30 -11 2 -11 -1 -32 -6 -45z m263 30 c-3 -5 -13 -10
-21 -10 -8 0 -12 5 -9 10 3 6 13 10 21 10 8 0 12 -4 9 -10z m-308 -30 c3 -17
-83 -65 -92 -51 -9 16 6 41 34 56 31 17 55 15 58 -5z m83 -93 c-10 -64 -38
-153 -85 -267 -45 -109 -39 -103 -88 -79 -23 12 -44 23 -46 25 -2 1 12 22 32
46 77 95 176 298 178 366 l1 27 8 -28 c5 -15 4 -56 0 -90z m575 65 c52 -40 67
-68 41 -78 -24 -9 -61 19 -85 66 -33 64 -27 66 44 12z m-345 -2 c0 -19 -31
-23 -48 -6 -15 15 -14 16 16 16 18 0 32 -5 32 -10z m-150 -25 c0 -16 -27 -32
-37 -22 -3 4 -3 13 0 22 8 20 37 20 37 0z m79 4 c39 -14 54 -41 46 -80 -6 -25
-11 -30 -28 -25 -12 3 -31 6 -42 6 -28 0 -49 49 -36 84 12 29 16 30 60 15z
m263 -13 c11 -16 10 -23 -8 -41 -15 -14 -18 -14 -40 0 -13 8 -30 15 -39 15
-23 0 -18 13 13 31 28 17 61 15 74 -5z m-629 0 c6 -15 -85 -110 -96 -100 -13
14 -7 31 29 72 37 43 58 52 67 28z m502 -31 c14 -13 25 -28 25 -32 -1 -24 -55
-63 -87 -63 -24 0 -31 14 -13 25 6 3 10 19 10 35 0 64 24 77 65 35z m188 11
c24 -19 21 -33 -9 -40 -33 -9 -37 -5 -28 28 7 29 12 31 37 12z m-566 -23 c4
-9 -4 -36 -17 -60 -20 -39 -25 -42 -33 -26 -5 10 -18 25 -29 34 -19 15 -18 16
19 42 45 31 52 32 60 10z m161 -15 c25 -25 11 -98 -18 -98 -27 0 -33 16 -25
66 6 44 20 55 43 32z m282 2 c22 -12 40 -61 33 -89 -13 -51 -63 2 -60 63 2 40
2 40 27 26z m330 -27 c32 -39 36 -76 10 -80 -8 -1 -32 19 -52 45 -33 43 -35
49 -20 59 25 17 28 16 62 -24z m-125 1 c40 -26 27 -74 -20 -74 -30 0 -52 65
-27 80 22 12 19 13 47 -6z m-77 -48 c5 -37 -14 -56 -54 -56 -32 0 -33 1 -23
27 5 14 7 39 4 54 l-6 28 38 -13 c30 -10 39 -19 41 -40z m-664 8 c9 -8 16 -28
16 -44 0 -27 -2 -28 -42 -28 -24 1 -53 -2 -65 -6 -33 -11 -29 8 13 54 40 44
54 48 78 24z m356 -9 c32 -17 50 -43 50 -74 0 -29 -13 -33 -63 -20 -51 14 -76
53 -57 89 13 24 31 25 70 5z m148 -17 c7 -7 12 -31 12 -54 0 -34 -6 -49 -31
-73 -17 -17 -39 -31 -49 -31 -23 0 -34 43 -19 72 6 11 9 36 6 54 -4 20 -1 35
6 38 23 9 63 6 75 -6z m306 -42 c19 -40 20 -68 4 -84 -21 -21 -45 -14 -45 14
0 14 -13 38 -29 55 l-28 29 27 0 c14 0 29 5 32 10 11 18 22 11 39 -24z m138
-7 c19 -34 21 -106 4 -102 -5 1 -23 26 -39 56 -26 47 -28 56 -16 70 19 22 29
17 51 -24z m-692 6 c33 -39 14 -88 -33 -83 -34 3 -36 10 -21 76 5 25 35 30 54
7z m469 -21 c25 -32 27 -61 4 -86 -19 -21 -56 -24 -71 -5 -6 6 -12 29 -13 49
-3 28 2 41 16 52 28 22 41 20 64 -10z m-123 -4 c14 0 26 -43 18 -63 -5 -15
-100 -35 -111 -24 -3 3 4 18 16 33 11 15 21 36 21 47 0 15 5 18 23 13 12 -3
27 -6 33 -6z m-621 -10 c7 -11 -43 -86 -62 -94 -7 -3 -14 11 -18 36 -6 34 -4
44 11 55 21 15 60 17 69 3z m905 -50 c26 -52 25 -58 -5 -30 -14 13 -25 34 -25
47 0 32 7 29 30 -17z m-757 -51 c-12 -45 -23 -88 -23 -95 0 -18 -14 -18 -28
-1 -8 9 -2 31 23 82 19 39 35 76 35 83 0 6 4 12 8 12 5 0 -2 -37 -15 -81z
m249 54 c10 -9 18 -26 18 -39 0 -17 -10 -25 -45 -37 l-45 -16 -6 27 c-4 15
-11 32 -16 39 -6 7 -4 19 4 33 10 17 19 20 42 15 16 -3 38 -13 48 -22z m672
-121 c26 -67 25 -92 -4 -92 -21 0 -29 17 -41 90 -5 30 -11 69 -15 85 l-6 30
20 -25 c11 -13 32 -53 46 -88z m-184 42 c0 -62 -58 -87 -71 -29 -4 17 -9 37
-13 45 -5 12 2 18 26 26 42 13 58 1 58 -42z m-619 36 c10 -6 19 -21 19 -34 0
-18 -9 -27 -37 -39 -37 -15 -38 -14 -52 10 -27 51 17 91 70 63z m-1361 -33 c0
-18 -2 -19 -10 -7 -13 20 -13 43 0 35 6 -3 10 -16 10 -28z m1780 -23 c0 -31
-21 -64 -41 -64 -15 0 -80 66 -72 73 3 4 14 7 24 7 9 0 27 9 40 19 30 24 49
11 49 -35z m100 2 c0 -36 -25 -66 -55 -66 -19 0 -21 5 -21 49 1 45 3 49 31 57
35 11 45 2 45 -40z m155 16 c11 -8 35 -57 35 -72 0 -6 -11 -10 -25 -10 -30 0
-48 30 -39 65 6 26 12 30 29 17z m-510 -35 c-60 -43 -134 -119 -150 -153 -17
-35 -14 -86 7 -111 21 -26 109 -25 231 2 64 15 122 25 129 23 6 -2 -50 -33
-123 -70 -103 -50 -137 -72 -147 -92 -17 -39 -15 -54 11 -71 27 -18 78 -20
212 -10 104 7 117 -1 40 -25 -22 -7 -61 -26 -88 -43 -118 -72 -99 -169 58
-298 41 -34 74 -64 72 -65 -2 -2 -32 1 -68 7 -35 6 -125 16 -199 24 l-135 13
-35 -41 c-19 -23 -76 -85 -126 -137 -50 -52 -101 -109 -113 -127 -26 -38 -27
-37 97 -52 46 -6 88 -14 95 -18 7 -4 -12 -14 -43 -24 -126 -39 -533 -194 -629
-240 -57 -27 -142 -75 -189 -106 l-85 -56 -40 42 c-40 44 -44 70 -4 34 39 -35
44 -35 139 13 101 50 128 69 128 91 0 8 10 23 22 32 32 27 18 51 -31 51 -73 0
-120 -30 -183 -115 l-29 -40 3 59 3 58 148 76 c144 75 149 77 215 75 37 -1 76
-3 87 -5 27 -4 48 60 43 134 -6 90 -45 117 -121 84 -49 -21 -79 -51 -170 -171
-96 -127 -135 -158 -182 -149 l-33 6 -11 -63 c-6 -34 -14 -66 -18 -70 -5 -4
-90 -39 -189 -78 -192 -74 -318 -111 -379 -111 -29 0 -47 -8 -77 -36 -47 -42
-95 -64 -140 -64 -77 1 -170 75 -184 145 -7 37 -20 47 -26 18 -3 -15 -121 134
-193 245 l-28 42 17 45 c38 99 151 121 288 55 42 -20 46 -16 22 19 -37 52 26
140 122 171 36 12 93 10 129 -5 16 -7 18 -6 8 6 -7 7 -13 25 -13 40 0 52 102
109 166 93 18 -5 25 -3 20 4 -3 6 -20 13 -36 17 -17 4 -30 13 -30 20 0 24 50
73 85 85 51 17 67 10 70 -28 4 -48 18 -59 49 -38 14 9 31 26 37 38 10 19 8 25
-15 45 -33 28 -110 31 -176 8 -23 -8 -44 -15 -46 -15 -12 0 -1 121 15 155 18
40 82 105 102 105 10 0 6 -59 -7 -109 -2 -9 7 8 22 37 25 51 52 73 39 31 -15
-48 -45 -154 -45 -161 0 -10 51 -10 66 0 6 4 16 40 22 80 6 41 13 76 15 78 4
4 148 -25 154 -30 5 -4 -40 -131 -55 -156 -9 -14 -34 -44 -56 -67 -47 -50 -37
-57 17 -12 40 33 73 91 101 174 l16 50 187 -3 c104 -2 190 -6 192 -8 8 -7
-111 -154 -153 -189 -45 -38 -35 -45 22 -16 42 22 78 58 146 148 39 52 53 63
84 68 20 4 83 18 140 32 57 14 106 22 110 18 14 -13 7 -91 -11 -118 l-17 -27
-29 32 c-24 27 -34 31 -75 31 -60 -1 -111 -28 -203 -109 -70 -61 -138 -104
-165 -104 -24 0 -39 -16 -32 -35 7 -16 16 -17 98 -11 193 14 317 58 411 146
29 29 93 110 140 182 96 144 111 151 103 48 -3 -48 -15 -82 -57 -166 -30 -57
-73 -126 -97 -153 -24 -27 -44 -56 -44 -65 0 -19 53 -127 82 -168 l19 -28 67
36 c78 42 112 75 112 110 0 13 9 33 20 44 25 25 25 41 2 71 -17 20 -17 25 -5
51 20 39 4 84 -51 145 -38 42 -42 51 -35 78 12 41 14 106 6 131 -6 16 -2 25
17 37 l25 17 21 -65 c22 -67 40 -92 40 -56 0 11 7 46 15 77 11 44 12 66 4 100
-8 31 -8 52 0 75 6 18 11 45 11 60 0 19 12 43 36 69 44 49 37 63 -16 32 -40
-23 -63 -15 -39 14 17 21 57 41 169 85 112 45 114 45 75 16z m108 8 c-5 -15
-53 -45 -70 -45 -10 1 58 60 69 60 4 0 5 -7 1 -15z m49 -32 c28 -25 24 -71 -8
-83 -42 -16 -51 -12 -57 26 -4 25 -1 41 11 55 20 23 30 24 54 2z m232 -59 c6
-27 3 -35 -20 -53 -15 -11 -30 -21 -34 -21 -3 0 -6 20 -6 45 1 32 6 48 21 59
24 17 31 12 39 -30z m84 10 c2 -20 -4 -36 -18 -49 -24 -22 -35 -14 -44 33 -5
28 -2 34 17 42 32 13 42 7 45 -26z m-417 16 c17 0 9 -60 -11 -80 -26 -26 -42
-25 -68 3 l-21 23 30 32 c19 20 37 31 46 28 8 -3 19 -6 24 -6z m227 -6 c42
-12 23 -104 -21 -104 -21 0 -32 13 -65 83 -2 4 7 11 20 16 28 12 37 12 66 5z
m282 -34 c0 -31 -30 -70 -54 -70 -22 0 -41 29 -28 42 7 7 12 22 12 35 0 20 5
23 35 23 32 0 35 -2 35 -30z m129 -71 c17 -51 18 -61 6 -66 -27 -10 -41 5 -57
60 -16 59 -16 59 24 66 3 0 15 -26 27 -60z m-491 39 c21 -21 15 -65 -10 -72
-52 -14 -84 -7 -106 23 -25 34 -19 41 32 39 20 -1 42 4 48 10 15 15 21 15 36
0z m-243 -49 c0 -28 -4 -35 -22 -37 -26 -4 -29 11 -13 53 14 36 35 26 35 -16z
m641 -4 c8 -43 -8 -65 -47 -65 -25 0 -29 4 -29 26 0 26 47 83 62 77 4 -2 10
-19 14 -38z m-117 8 c19 -12 22 -20 17 -46 -9 -44 -38 -71 -68 -64 -21 6 -23
11 -23 71 0 64 0 65 25 59 14 -3 36 -12 49 -20z m-403 -24 c10 -16 -15 -29
-58 -29 -34 0 -38 3 -38 24 0 19 6 25 28 28 29 4 57 -5 68 -23z m314 21 c0 -5
-5 -10 -11 -10 -5 0 -7 5 -4 10 3 6 8 10 11 10 2 0 4 -4 4 -10z m-16 -71 c-20
-23 -50 -25 -58 -4 -3 10 7 21 32 34 31 16 38 17 40 4 2 -8 -4 -23 -14 -34z
m271 -65 c15 -51 7 -62 -39 -50 -35 9 -43 71 -13 102 25 26 29 22 52 -52z
m-345 38 c0 -62 -70 -101 -89 -49 -7 19 -2 26 33 49 51 35 56 35 56 0z m433
-25 c21 -65 21 -87 3 -112 -12 -17 -14 -16 -24 16 -9 28 -17 111 -13 142 3 23
20 0 34 -46z m-177 -12 c14 -58 -21 -99 -66 -75 -27 15 -27 67 1 96 26 28 55
18 65 -21z m-138 6 c36 -15 41 -38 15 -69 -23 -26 -57 -36 -70 -20 -6 7 -13
32 -17 55 -5 34 -3 42 11 46 10 3 20 4 23 3 3 -1 20 -8 38 -15z m-2293 -32 c5
-20 22 -52 38 -72 15 -20 27 -43 27 -51 0 -11 9 -16 29 -16 17 0 32 -4 35 -9
7 -11 -20 -18 -124 -30 -47 -5 -93 -13 -102 -16 -37 -14 -11 -35 43 -35 16 0
29 -4 29 -8 0 -11 -122 -3 -134 9 -16 15 21 45 80 65 60 20 94 46 94 71 0 9
-25 40 -55 68 -30 28 -55 54 -55 58 0 5 19 7 42 5 39 -3 43 -6 53 -39z m2065
-1 c0 -18 -7 -42 -15 -52 -15 -19 -15 -19 -40 4 -14 13 -25 27 -25 31 0 8 60
49 73 49 4 0 7 -15 7 -32z m140 -18 c0 -29 -6 -43 -22 -54 -30 -21 -37 -20
-48 9 -8 20 -4 29 23 57 18 19 35 32 40 30 4 -2 7 -21 7 -42z m-238 -41 c-9
-37 -25 -42 -30 -9 -2 12 4 27 15 35 24 18 26 14 15 -26z m148 -14 c0 -26 -18
-45 -41 -45 -29 0 -31 16 -7 61 20 38 22 40 35 23 7 -10 13 -27 13 -39z m379
19 c26 -5 31 -11 31 -34 0 -37 -32 -64 -65 -56 -21 5 -25 12 -25 45 0 53 4 56
59 45z m-474 -35 c9 -27 -2 -39 -35 -39 l-30 0 17 34 c17 36 38 38 48 5z m358
9 c34 -13 35 -42 2 -64 -23 -15 -27 -15 -50 0 -38 25 -34 96 4 80 9 -3 28 -11
44 -16z m-103 -18 c0 -4 -23 -10 -50 -12 -28 -1 -50 -1 -50 0 0 2 10 12 22 22
18 14 28 15 50 8 15 -6 28 -14 28 -18z m-350 -11 c0 -11 -4 -17 -10 -14 -5 3
-10 15 -10 26 0 11 5 17 10 14 6 -3 10 -15 10 -26z m715 -51 c-15 -26 -23 -22
-33 15 -8 27 -6 35 12 49 20 17 21 16 26 -15 3 -18 1 -40 -5 -49z m-70 5 c7
-35 -1 -41 -28 -20 -15 10 -16 16 -5 44 13 36 21 30 33 -24z m-315 -8 c-7 -8
-27 -15 -44 -15 l-31 1 30 14 c43 19 61 19 45 0z m130 -8 c28 10 30 10 30 -12
0 -36 -31 -66 -75 -72 -33 -4 -44 -1 -63 19 l-22 25 20 25 c18 24 23 25 50 15
22 -8 38 -8 60 0z m128 -10 c14 -16 -6 -43 -41 -56 -32 -12 -39 -3 -31 38 5
26 11 31 34 31 15 0 32 -6 38 -13z m-2314 -5 c3 -5 -10 -24 -29 -42 -39 -38
-45 -31 -15 18 20 32 34 40 44 24z m2475 -29 c14 -50 14 -63 -1 -63 -35 1 -60
58 -38 85 19 23 28 18 39 -22z m-519 14 c0 -22 -36 -49 -61 -45 -35 5 -34 26
3 42 43 19 58 19 58 3z m430 -43 c0 -53 -69 -86 -100 -49 -11 13 -7 22 25 54
47 47 75 45 75 -5z m-343 -4 c18 -16 38 -30 43 -30 16 0 11 -22 -7 -36 -34
-26 -115 -12 -98 16 5 7 8 28 7 47 -2 41 11 42 55 3z m-201 -7 c-10 -10 -19 5
-10 18 6 11 8 11 12 0 2 -7 1 -15 -2 -18z m124 -18 c0 -24 -31 -65 -49 -65
-13 0 -51 49 -51 65 0 8 9 10 24 8 13 -3 32 0 43 6 27 16 33 13 33 -14z m285
5 c11 -18 -6 -50 -35 -65 -36 -19 -71 -19 -95 -1 -16 12 -17 16 -6 30 7 9 23
16 35 16 12 0 31 7 42 15 22 17 50 19 59 5z m202 -42 c-3 -8 -6 -5 -6 6 -1 11
2 17 5 13 3 -3 4 -12 1 -19z m-41 -23 c3 -20 3 -39 0 -42 -8 -8 -73 -9 -80 -2
-9 9 6 49 19 49 7 0 18 7 25 15 19 23 29 18 36 -20z m92 -47 c-3 -20 -3 -20
-27 -1 -23 19 -23 19 -6 54 l18 34 9 -34 c5 -18 8 -42 6 -53z m-1181 50 c29
-33 34 -64 14 -89 -17 -21 -18 -21 -44 -4 -31 20 -31 23 -15 76 13 45 17 47
45 17z m977 9 c38 -28 -27 -107 -88 -107 -18 0 -37 5 -43 11 -18 18 -3 47 27
54 15 3 38 17 50 31 27 28 30 28 54 11z m-286 -56 c5 -29 -24 -71 -47 -71 -13
0 -23 13 -34 45 -14 46 -14 46 12 60 32 17 64 1 69 -34z m120 19 c18 0 14 -45
-6 -71 -20 -23 -74 -31 -92 -13 -5 5 -6 27 -3 50 4 33 11 43 32 51 19 7 30 6
42 -4 8 -7 21 -13 27 -13z m262 -58 c0 -34 -29 -62 -65 -62 -45 0 -65 32 -39
61 24 26 104 27 104 1z m38 -54 c-2 -18 -7 -25 -15 -20 -8 5 -10 23 -6 52 6
39 7 41 15 20 5 -13 8 -37 6 -52z m69 46 c5 -14 -14 -71 -21 -63 -2 2 -6 21
-9 42 -4 28 -2 37 9 37 8 0 17 -7 21 -16z m-1229 -23 c19 -53 -33 -105 -61
-60 -7 11 -3 25 14 52 13 20 27 37 31 37 3 0 11 -13 16 -29z m108 -29 c-12
-12 -18 8 -10 35 l8 28 4 -28 c2 -16 1 -31 -2 -35z m828 26 c34 -3 34 -30 -1
-57 -35 -28 -66 -35 -92 -22 -17 10 -19 15 -10 39 17 44 39 63 60 52 10 -6 29
-11 43 -12z m-146 -15 c31 -8 28 -36 -9 -67 -36 -31 -41 -31 -67 -8 -33 27
-38 65 -10 78 13 7 32 10 43 7 11 -2 30 -7 43 -10z m-711 -18 c6 -18 -23 -55
-44 -55 -8 0 -13 12 -13 35 0 31 3 35 25 35 14 0 28 -7 32 -15z m946 -15 c35
-17 33 -45 -5 -73 -25 -19 -28 -19 -52 -3 -14 9 -26 21 -26 27 0 13 43 69 50
66 3 -2 18 -9 33 -17z m237 -46 c0 -40 -19 -72 -37 -61 -17 11 -14 77 4 101
22 30 33 17 33 -40z m-123 18 c8 -32 -21 -87 -59 -115 -23 -17 -31 -18 -57 -8
-41 18 -46 37 -10 45 30 6 69 55 69 88 0 37 47 29 57 -10z m-1227 -26 c0 -79
-43 -115 -64 -54 -8 24 -6 32 20 58 37 38 44 37 44 -4z m204 8 c3 -8 1 -25 -6
-37 -11 -21 -11 -21 -19 -2 -12 32 -10 55 5 55 8 0 17 -7 20 -16z m776 -8 c55
-2 15 -96 -40 -96 -26 0 -68 27 -82 53 -15 29 25 59 67 50 17 -3 41 -7 55 -7z
m277 -8 c-3 -8 -6 -5 -6 6 -1 11 2 17 5 13 3 -3 4 -12 1 -19z m-1187 -22 c-1
-36 -14 -56 -37 -56 -21 0 -24 4 -19 23 3 12 6 32 6 44 0 20 2 21 25 11 14 -6
25 -16 25 -22z m79 -24 c-21 -39 -53 -36 -57 5 -3 28 0 32 25 35 40 5 51 -8
32 -40z m911 -50 c0 -27 -59 -92 -84 -92 -21 0 -69 47 -61 59 3 5 19 12 35 16
17 4 42 22 58 41 24 31 28 33 40 17 6 -9 12 -28 12 -41z m193 11 c3 -27 2 -51
-1 -54 -10 -10 -52 8 -58 25 -5 14 33 76 47 76 3 0 9 -21 12 -47z m111 -55 c6
-83 5 -88 -14 -88 -25 0 -34 34 -28 100 4 41 24 89 33 78 1 -2 5 -42 9 -90z
m-1203 29 c-16 -16 -25 -1 -10 16 8 8 16 11 18 5 2 -5 -2 -15 -8 -21z m722 11
c23 -12 17 -29 -16 -48 -31 -17 -42 -9 -50 38 -6 31 -6 32 21 26 15 -4 35 -11
45 -16z m-843 -28 c0 -4 -7 -13 -16 -20 -21 -18 -49 9 -39 39 6 19 8 20 31 5
13 -9 24 -20 24 -24z m64 27 c15 -11 17 -17 7 -35 -22 -41 -58 -22 -47 24 7
27 15 29 40 11z m1001 -7 c3 -6 17 -7 31 -4 18 5 32 0 50 -17 30 -28 30 -38
-1 -72 -35 -37 -87 -34 -128 8 -16 15 -15 19 6 56 23 40 31 46 42 29z m-760
-175 c-3 -36 -11 -65 -17 -65 -7 0 -8 16 -4 46 3 26 6 72 7 103 l1 56 10 -38
c6 -21 7 -66 3 -102z m574 104 c18 -23 49 -27 95 -14 l30 8 -20 -34 c-39 -66
-106 -62 -147 10 -17 27 -18 34 -6 42 21 13 29 11 48 -12z m339 -25 c-4 -58
-26 -78 -57 -50 -20 18 -20 18 11 57 17 22 35 39 40 39 5 0 8 -21 6 -46z
m-1219 5 c-20 -13 -29 -11 -29 5 0 16 33 27 39 13 2 -5 -3 -13 -10 -18z m811
5 c0 -7 16 -32 36 -53 l35 -40 -25 -16 c-19 -13 -29 -14 -45 -5 -18 9 -21 20
-21 76 0 41 4 63 10 59 6 -3 10 -13 10 -21z m-1090 -9 c7 -9 15 -39 18 -68 l5
-52 -25 23 c-31 29 -44 28 -74 -5 -20 -22 -28 -25 -47 -16 -15 7 -29 7 -40 1
-35 -19 -16 14 41 72 61 63 96 76 122 45z m1324 -30 c38 -16 42 -25 26 -56
-27 -49 -117 -61 -154 -20 -17 18 -16 19 13 26 17 4 41 19 53 35 13 16 24 29
24 29 1 1 18 -6 38 -14z m109 -33 c34 -27 34 -29 21 -60 -15 -38 -52 -57 -89
-48 -37 9 -41 31 -12 66 14 16 28 39 32 50 3 11 8 20 9 20 2 0 19 -13 39 -28z
m167 1 c-1 -10 -7 -29 -15 -43 -14 -25 -14 -24 -15 18 0 31 4 42 15 42 8 0 15
-8 15 -17z m-94 -71 c-4 -3 -11 -1 -17 5 -6 6 -6 19 3 39 l12 29 4 -33 c2 -19
1 -37 -2 -40z m-1513 6 c24 -32 15 -48 -26 -48 -52 0 -59 11 -36 49 22 37 34
36 62 -1z m1193 11 c3 -6 22 -18 41 -26 l35 -14 -22 -24 c-30 -32 -54 -39 -82
-24 -52 28 -62 70 -20 86 36 15 40 15 48 2z m434 -60 l0 -71 -22 14 c-31 21
-34 61 -7 98 13 16 24 30 26 30 2 0 3 -32 3 -71z m-469 -41 c17 -7 28 -19 27
-28 -4 -19 -51 -42 -71 -34 -16 6 -27 56 -26 119 l0 40 20 -42 c13 -26 32 -47
50 -55z m-1278 67 c-2 -9 -83 -26 -91 -20 -2 2 9 10 25 19 30 17 69 17 66 1z
m1471 -30 c20 -15 20 -15 0 -42 -27 -36 -79 -48 -104 -23 -18 18 -17 20 17 59
38 42 42 42 87 6z m155 21 c7 -8 11 -32 9 -53 -3 -32 -7 -38 -29 -41 -14 -2
-37 6 -52 18 -29 23 -36 50 -14 50 8 0 22 9 32 20 21 24 38 25 54 6z m-79 -88
c45 -37 46 -41 24 -62 -32 -32 -114 -9 -114 32 0 12 38 61 48 62 2 0 21 -15
42 -32z m-157 -58 c-11 -40 -95 -51 -109 -15 -3 8 7 29 22 48 l27 35 32 -25
c21 -17 31 -32 28 -43z m367 25 c0 -10 -50 -45 -64 -45 -3 0 -6 20 -6 45 l0
45 35 -17 c19 -9 35 -22 35 -28z m-496 -40 c20 -19 42 -35 51 -35 22 0 19 -37
-4 -50 -57 -30 -101 1 -101 72 0 26 4 48 10 48 5 0 25 -16 44 -35z m367 28 c6
-27 5 -115 0 -100 -6 17 -8 17 -25 -2 -25 -28 -81 -28 -96 -2 -14 28 -14 28
25 41 20 7 45 25 57 41 21 28 37 37 39 22z m-192 -27 c8 -13 23 -28 34 -33 21
-10 21 -10 -5 -36 -32 -32 -67 -34 -99 -8 l-23 19 32 30 c17 16 32 35 32 41 0
19 16 12 29 -13z m296 -82 c-24 -38 -45 -31 -45 15 0 34 4 41 28 49 24 8 27 6
30 -15 2 -13 -4 -35 -13 -49z m-360 -21 c41 -19 42 -37 5 -65 -22 -16 -30 -17
-58 -7 -27 9 -62 46 -50 52 2 1 17 9 33 19 17 9 31 17 32 17 1 1 18 -7 38 -16z
m144 0 c36 -21 38 -31 10 -67 -25 -31 -68 -35 -93 -7 -19 21 -16 31 17 69 25
27 27 27 66 5z m-260 -39 c17 -25 29 -49 26 -54 -8 -13 -39 -18 -63 -9 -19 7
-22 16 -22 59 0 64 18 66 59 4z m377 20 c11 -42 -7 -80 -37 -76 -52 5 -56 66
-5 90 31 16 35 14 42 -14z m114 -50 l0 -65 -27 3 c-40 4 -44 54 -8 97 15 17
29 31 31 31 2 0 4 -30 4 -66z m-150 -64 c0 -14 -52 -50 -72 -50 -20 0 -68 42
-68 60 0 5 8 10 18 10 10 0 27 6 37 14 16 11 23 11 52 -6 18 -11 33 -24 33
-28z m-2043 11 c32 -23 55 -72 41 -88 -6 -8 -46 -32 -89 -54 -43 -22 -93 -57
-111 -76 -18 -20 -43 -46 -55 -59 -12 -13 -30 -24 -39 -24 -15 0 -16 12 -9
128 4 76 12 130 19 134 6 4 36 15 66 23 30 9 69 22 85 30 33 15 58 11 92 -14z
m-913 -209 c1 -77 -2 -135 -6 -128 -28 50 -60 179 -64 260 l-5 91 37 -41 37
-41 1 -141z m3074 157 c3 -23 -31 -81 -40 -69 -3 3 -3 27 0 53 3 38 8 47 21
45 9 -2 17 -15 19 -29z m-2443 -121 c-7 -115 -29 -275 -39 -285 -3 -3 -8 12
-11 33 -4 22 -20 101 -36 177 -16 76 -29 144 -29 152 0 8 20 20 48 29 79 24
75 31 67 -106z m-140 8 c12 -28 26 -67 29 -86 4 -19 10 -43 12 -52 4 -14 -1
-18 -20 -18 -16 0 -32 -10 -46 -30 -21 -29 -22 -29 -50 -15 -16 8 -42 15 -57
15 -30 0 -91 -32 -98 -53 -5 -13 -157 125 -187 171 -16 24 -25 82 -14 82 3 0
22 -10 42 -22 29 -17 54 -22 108 -23 63 0 78 4 131 34 126 72 117 72 150 -3z
m2595 29 c0 -28 -32 -65 -55 -65 -24 0 -17 39 11 65 34 32 44 31 44 0z m-3194
-72 c-10 -46 -14 -99 -11 -158 4 -88 4 -88 -6 -30 -12 69 -6 184 11 233 20 54
23 29 6 -45z m3178 -40 c-9 -62 -14 -70 -30 -48 -12 15 -10 24 8 57 12 21 23
38 25 38 3 0 1 -21 -3 -47z m-453 -10 c20 -37 2 -58 -52 -58 -43 0 -44 1 -47
33 -5 51 1 58 46 54 30 -3 43 -10 53 -29z m409 16 c-7 -11 -14 -18 -17 -15 -8
8 5 36 17 36 7 0 7 -6 0 -21z m0 -70 c0 -5 -7 -9 -15 -9 -15 0 -20 12 -9 23 8
8 24 -1 24 -14z m-1454 -76 c-10 -10 -19 5 -10 18 6 11 8 11 12 0 2 -7 1 -15
-2 -18z m452 15 c7 -7 12 -15 12 -19 0 -9 -61 5 -86 19 -16 10 -13 11 22 12
22 0 45 -5 52 -12z m580 -15 c4 -30 -10 -29 -45 2 l-28 25 35 -2 c28 -2 36 -8
38 -25z m302 17 c0 -5 -4 -10 -10 -10 -5 0 -10 5 -10 10 0 6 5 10 10 10 6 0
10 -4 10 -10z m90 3 c0 -5 -5 -15 -10 -23 -8 -12 -10 -11 -10 8 0 12 5 22 10
22 6 0 10 -3 10 -7z m35 -72 c-13 -54 -21 -70 -38 -75 -30 -8 -40 3 -33 36 5
27 76 121 85 113 2 -2 -4 -35 -14 -74z m-390 39 c18 -19 17 -20 -3 -20 -15 0
-22 6 -22 20 0 11 2 20 3 20 2 0 12 -9 22 -20z m-46 -26 c14 -12 -19 -1 -35
12 -18 14 -18 14 6 3 14 -6 27 -13 29 -15z"/>
<path d="M3163 4595 c-38 -43 -53 -82 -53 -140 0 -33 4 -65 8 -72 4 -6 34 -13
67 -15 l60 -3 3 83 c3 77 1 85 -25 122 -30 42 -41 47 -60 25z"/>
<path d="M3700 3940 c-19 -19 -20 -33 -20 -205 0 -177 1 -185 22 -205 31 -28
72 -26 97 6 19 25 21 40 21 203 0 165 -1 179 -20 199 -26 28 -73 29 -100 2z"/>
<path d="M604 3945 c-3 -6 -3 -54 -2 -106 l3 -94 47 -3 c38 -2 50 1 68 20 19
20 21 32 18 90 -2 37 -9 73 -16 80 -17 17 -113 28 -118 13z"/>
<path d="M1124 3952 c-28 -19 -34 -56 -34 -220 0 -156 2 -171 21 -196 24 -31
66 -35 98 -8 20 16 21 27 22 205 0 166 -2 191 -17 208 -17 19 -69 26 -90 11z"/>
<path d="M3189 3941 c-22 -18 -23 -22 -22 -200 1 -176 2 -184 24 -207 30 -32
72 -32 98 2 19 25 21 40 21 205 0 166 -1 180 -20 199 -25 25 -71 26 -101 1z"/>
<path d="M2667 1910 c-85 -27 -107 -44 -107 -84 0 -48 11 -51 34 -9 20 37 68
68 151 99 29 11 29 12 5 12 -14 1 -51 -7 -83 -18z"/>
<path d="M2499 1705 c-18 -44 -24 -241 -7 -290 18 -56 45 -59 45 -6 0 43 16
71 39 71 20 0 17 20 -6 55 -30 45 -27 99 7 123 l28 20 -38 7 c-26 5 -41 15
-47 29 -8 20 -9 19 -21 -9z"/>
<path d="M2707 1673 c-40 -11 -63 -23 -74 -39 -15 -24 -21 -69 -10 -80 6 -6
175 117 176 129 1 10 -25 7 -92 -10z"/>
<path d="M1043 1588 c-11 -13 -26 -33 -32 -45 -24 -46 -6 -118 27 -106 36 13
41 22 26 52 -12 24 -12 34 1 71 8 23 15 44 15 46 0 11 -19 1 -37 -18z"/>
<path d="M2646 1424 c-25 -24 -21 -47 7 -38 32 11 58 7 108 -16 48 -21 69 -25
69 -11 0 8 -143 81 -160 81 -5 0 -16 -7 -24 -16z"/>
<path d="M1328 1390 c-16 -12 -28 -30 -28 -41 0 -24 6 -24 37 1 50 39 151 15
168 -41 7 -22 -28 -69 -52 -69 -7 0 -13 -4 -13 -10 0 -32 87 10 96 46 22 86
-135 172 -208 114z"/>
<path d="M1195 1291 c-60 -15 -155 -72 -155 -93 0 -14 28 -9 33 7 4 8 25 24
49 37 58 30 138 30 196 0 67 -35 75 -84 21 -125 -37 -26 -37 -41 -1 -33 60 15
80 82 42 143 -31 52 -116 81 -185 64z"/>
<path d="M1713 1262 c-74 -26 -153 -87 -153 -119 0 -22 17 -15 57 23 21 20 61
47 88 60 45 22 63 24 190 24 77 0 147 5 155 10 8 5 11 10 5 10 -5 0 -73 2
-150 5 -117 4 -149 1 -192 -13z"/>
<path d="M930 1235 c-19 -14 -37 -30 -41 -37 -12 -18 1 -38 26 -38 18 0 23 6
23 27 0 28 25 53 53 53 10 0 21 5 24 10 13 21 -52 9 -85 -15z"/>
<path d="M2108 1204 c-15 -15 -14 -20 4 -62 26 -58 21 -168 -11 -230 -12 -23
-21 -44 -21 -47 0 -14 62 -2 124 25 104 44 133 80 65 80 -30 0 -31 1 -24 39 5
33 3 41 -14 50 -11 6 -37 45 -56 86 -20 41 -40 75 -44 75 -3 0 -14 -7 -23 -16z"/>
<path d="M1870 1177 c-41 -20 -66 -39 -68 -51 -4 -19 -3 -19 19 -3 107 77 181
84 247 24 23 -22 30 -13 9 13 -46 59 -113 65 -207 17z"/>
<path d="M1025 1136 c-27 -7 -68 -20 -90 -30 -48 -20 -125 -93 -125 -118 0
-25 6 -23 51 21 64 61 142 96 214 96 70 -1 111 -19 174 -79 l43 -41 -7 35
c-11 54 -32 88 -65 105 -41 21 -136 27 -195 11z"/>
<path d="M710 1111 c-41 -21 -80 -74 -80 -108 0 -15 9 -27 26 -35 31 -14 39
-5 48 54 4 25 18 51 36 70 17 16 30 31 30 34 0 9 -27 3 -60 -15z"/>
<path d="M2078 939 c-38 -84 -63 -99 -165 -99 -54 0 -82 -4 -78 -10 8 -13 139
-13 186 0 32 9 40 18 63 70 15 33 26 68 23 78 -2 11 -13 -3 -29 -39z"/>
<path d="M393 959 c-12 -7 -24 -18 -27 -26 -5 -12 2 -13 39 -8 37 6 52 3 87
-18 24 -14 54 -37 67 -51 30 -32 46 -33 47 -3 1 12 5 31 8 42 6 18 -1 24 -46
44 -60 27 -142 36 -175 20z"/>
<path d="M1026 922 c-27 -9 -52 -23 -54 -31 -4 -10 0 -12 14 -7 89 35 195 31
244 -11 99 -83 70 -168 -65 -192 -39 -7 -83 -15 -100 -19 l-30 -6 30 -7 c75
-17 159 -5 203 29 32 25 51 86 41 130 -11 49 -64 100 -123 117 -63 19 -99 18
-160 -3z"/>
<path d="M360 875 c-16 -19 -16 -61 0 -80 6 -8 28 -17 49 -21 77 -12 99 -24
111 -57 7 -18 14 -27 17 -20 2 6 -9 42 -24 79 -20 49 -38 75 -62 91 -39 27
-73 29 -91 8z"/>
<path d="M1050 880 c-88 -11 -170 -53 -170 -86 0 -9 21 -3 65 20 110 59 199
57 270 -6 41 -35 53 -32 33 9 -23 50 -102 75 -198 63z"/>
<path d="M990 811 c-30 -9 -66 -23 -80 -30 -39 -21 -90 -73 -90 -93 0 -25 12
-23 40 7 34 36 89 49 153 35 106 -21 171 -14 182 20 6 20 -10 59 -29 72 -20
14 -120 7 -176 -11z"/>
<path d="M1333 664 c-59 -22 -117 -53 -111 -60 5 -4 172 56 181 65 19 19 -11
16 -70 -5z"/>
<path d="M1280 550 c-89 -33 -101 -50 -98 -135 3 -59 4 -60 30 -58 55 4 208
128 208 169 0 24 -29 54 -51 53 -8 0 -48 -13 -89 -29z"/>
<path d="M915 414 c-80 -67 -148 -79 -251 -44 -76 25 -75 25 -63 -10 6 -16 42
-57 80 -91 70 -62 70 -62 108 -50 46 13 108 17 138 7 16 -5 26 0 43 24 12 16
28 30 36 30 18 0 11 54 -17 118 -21 48 -32 51 -74 16z"/>
<path d="M2901 1216 c-12 -21 -9 -37 18 -123 49 -156 56 -288 30 -561 -11
-116 -7 -141 15 -110 13 18 41 263 52 449 9 162 -16 308 -60 352 -24 23 -40
21 -55 -7z"/>
<path d="M1636 422 c-3 -5 -5 -86 -5 -181 l0 -172 27 3 c24 3 27 8 30 43 2 22
9 43 15 47 7 4 44 8 83 8 79 0 111 17 139 70 33 64 4 149 -60 176 -37 15 -220
20 -229 6z m190 -50 c51 -41 57 -91 15 -133 -25 -24 -38 -29 -79 -29 -37 0
-51 4 -56 16 -9 22 11 44 39 44 36 0 55 10 55 30 0 14 -10 20 -44 25 -47 7
-65 28 -45 51 16 20 90 17 115 -4z"/>
<path d="M2210 393 l1 -38 14 34 c18 41 18 41 0 41 -11 0 -15 -11 -15 -37z"/>
<path d="M3368 423 c-10 -2 -18 -8 -18 -13 0 -4 9 -6 20 -3 11 3 20 9 20 14 0
5 -1 8 -2 8 -2 -1 -11 -3 -20 -6z"/>
<path d="M3193 377 c2 -7 14 -14 26 -15 28 -4 20 13 -9 21 -14 3 -20 1 -17 -6z"/>
<path d="M3334 368 c-8 -26 -58 -78 -74 -78 -7 0 -8 -13 -4 -37 4 -21 7 -45 6
-54 0 -12 6 -15 24 -11 19 3 24 11 24 33 0 22 -5 29 -20 29 -11 0 -20 4 -20 8
0 12 41 48 63 55 12 5 17 17 17 42 0 40 -6 45 -16 13z"/>
<path d="M2246 265 c-3 -8 -12 -15 -21 -15 -9 0 -15 -9 -15 -24 0 -19 4 -22
25 -18 21 4 25 10 25 38 0 37 -4 43 -14 19z"/>
<path d="M2734 223 c-4 -16 -14 -36 -22 -46 -14 -16 -14 -17 1 -11 15 5 57 63
57 78 0 3 -7 6 -15 6 -8 0 -18 -12 -21 -27z"/>
<path d="M2854 234 c3 -9 6 -18 6 -20 0 -2 9 -4 20 -4 18 0 19 2 8 20 -15 24
-43 27 -34 4z"/>
<path d="M2873 165 c-14 -25 -94 -33 -116 -11 -23 23 -57 5 -84 -44 l-21 -40
21 0 c12 0 28 9 35 20 11 18 23 20 108 20 94 0 95 0 88 23 -13 44 -20 52 -31
32z"/>
<path d="M2257 95 l-18 -25 39 0 c38 0 52 11 52 41 0 20 -55 8 -73 -16z"/>
<path d="M2350 101 c-13 -26 -13 -31 5 -31 9 0 15 9 15 25 0 30 -6 32 -20 6z"/>
<path d="M3260 103 c1 -21 19 -35 36 -29 18 7 18 8 0 22 -22 15 -36 18 -36 7z"/>
<path d="M2946 91 c-4 -7 -5 -15 -2 -18 9 -9 19 4 14 18 -4 11 -6 11 -12 0z"/>
<path d="M2742 20 c-12 -19 -10 -20 68 -20 78 0 80 1 68 20 -18 29 -118 29
-136 0z"/>
<path d="M3160 10 c-12 -8 -11 -10 7 -10 12 0 25 5 28 10 8 13 -15 13 -35 0z"/>
</g>
</svg>
