<?xml version="1.0" standalone="no"?>
<!DOCTYPE svg PUBLIC "-//W3C//DTD SVG 20010904//EN"
 "http://www.w3.org/TR/2001/REC-SVG-20010904/DTD/svg10.dtd">
<svg version="1.0" xmlns="http://www.w3.org/2000/svg"
 width="1000.000000pt" height="1000.000000pt" viewBox="0 0 1000.000000 1000.000000"
 preserveAspectRatio="xMidYMid meet">
<metadata>
Created by potrace 1.14, written by Peter Selinger 2001-2017
</metadata>
<g transform="translate(0.000000,1000.000000) scale(0.100000,-0.100000)"
fill="#000000" stroke="none">
<path d="M6590 8733 c-27 -14 -155 -177 -542 -693 -279 -371 -513 -690 -519
-709 -24 -70 4 -143 71 -188 32 -22 39 -23 301 -23 l269 0 0 -451 0 -451 -52
6 c-322 38 -646 33 -879 -14 l-97 -20 -58 35 c-108 65 -154 77 -319 84 l-150
6 -83 48 c-45 27 -103 57 -129 67 l-47 18 -51 123 c-57 139 -75 176 -115 234
l-28 41 38 22 c107 61 128 268 46 448 -59 128 -221 243 -417 296 -75 20 -102
22 -249 19 -450 -10 -525 -8 -675 23 -154 32 -248 37 -341 17 -60 -13 -61 -13
-109 18 -110 70 -247 86 -354 42 -133 -54 -351 -232 -436 -355 -45 -65 -95
-205 -95 -266 0 -62 21 -90 68 -90 45 0 80 20 159 94 59 54 62 56 68 34 4 -13
19 -47 32 -76 l25 -53 -36 -80 c-60 -130 -69 -188 -67 -403 1 -181 0 -193 -25
-270 -15 -45 -35 -90 -45 -101 -31 -35 -86 -150 -99 -208 -15 -67 -2 -178 30
-253 25 -59 82 -120 125 -134 22 -7 43 -28 71 -71 44 -69 95 -114 172 -153 84
-42 135 -44 218 -8 64 28 165 52 223 52 24 0 24 0 17 -87 -4 -49 -13 -142 -21
-208 -8 -66 -15 -145 -15 -176 0 -32 -3 -64 -6 -73 -6 -14 -124 -16 -1235 -16
l-1229 0 0 -1030 0 -1030 1470 0 1470 0 0 -157 c0 -87 -5 -186 -10 -221 -13
-78 -97 -315 -154 -437 -45 -94 -78 -132 -161 -187 -31 -20 -57 -48 -69 -71
-17 -36 -17 -40 -1 -82 10 -27 35 -61 63 -86 45 -40 133 -89 161 -89 9 0 11
-5 5 -17 -5 -10 -10 -334 -12 -720 l-4 -703 491 0 490 0 4 868 c4 942 1 896
62 1077 61 184 231 472 430 728 l76 97 203 0 203 0 -10 -67 c-14 -101 -2 -271
29 -418 24 -113 27 -153 28 -305 0 -193 -12 -267 -64 -396 -16 -40 -50 -99
-76 -131 -86 -105 -101 -166 -61 -243 35 -69 75 -84 230 -89 137 -3 301 11
383 34 95 27 165 91 193 177 8 24 13 131 15 305 2 147 7 363 11 478 7 198 6
218 -19 360 -14 83 -28 183 -32 223 l-7 72 217 0 c128 0 216 -4 216 -9 0 -6
-26 -30 -58 -54 -124 -96 -164 -166 -141 -249 16 -63 54 -107 118 -137 53 -24
65 -26 201 -26 131 1 153 4 227 28 102 34 160 77 192 141 22 44 25 62 25 178
l1 128 646 0 647 0 7 -57 c4 -32 20 -99 36 -149 35 -109 35 -136 8 -251 -29
-120 -30 -214 -3 -250 32 -42 64 -61 134 -79 137 -35 280 1 356 89 47 56 97
147 124 227 17 51 20 76 15 119 -9 72 -38 165 -81 258 -19 42 -34 79 -34 84 0
5 394 9 905 9 l905 0 0 1030 0 1030 -1197 0 -1198 0 -167 308 c-91 169 -191
358 -222 419 l-56 113 0 725 0 725 269 0 c262 0 269 1 301 23 18 12 42 34 53
48 24 34 33 109 17 148 -17 42 -1010 1360 -1042 1384 -38 29 -123 33 -168 10z
m-4197 -1085 l59 -11 -81 -42 c-44 -23 -87 -47 -95 -54 -12 -10 -20 -9 -40 5
-40 26 -73 13 -221 -87 -123 -84 -151 -108 -222 -193 -28 -34 -70 -35 -83 -2
-19 52 4 87 118 175 126 96 144 107 262 161 152 69 174 73 303 48z m420 -115
c48 -9 87 -20 87 -24 0 -4 -24 -22 -52 -40 -123 -78 -192 -166 -257 -331 -23
-56 -31 -93 -31 -137 0 -48 -6 -74 -29 -119 -60 -120 -103 -253 -104 -322 -1
-113 37 -162 198 -258 69 -41 87 -58 133 -124 29 -43 69 -90 89 -105 35 -27
42 -28 172 -31 161 -3 190 -14 279 -95 69 -64 122 -94 182 -103 l41 -7 -27
-28 c-56 -58 -163 -102 -354 -144 -63 -14 -126 -28 -138 -31 -48 -10 -10 14
79 51 56 23 106 52 130 75 41 39 52 67 22 56 -110 -36 -177 -58 -224 -71 -33
-8 -95 -40 -148 -75 -125 -82 -176 -106 -241 -114 -112 -14 -343 48 -454 122
-70 46 -90 82 -84 151 3 28 8 54 11 57 3 3 19 -2 36 -10 16 -9 32 -16 35 -16
3 0 24 16 46 36 27 25 44 52 54 85 32 107 -12 198 -113 234 -49 17 -178 20
-229 6 l-32 -10 17 31 c25 42 98 102 236 193 226 149 256 206 276 530 9 151
18 174 116 300 93 120 123 192 106 253 l-10 32 47 0 c26 0 86 -7 135 -17z
m986 -64 c64 -16 156 -60 223 -109 45 -32 64 -54 88 -104 50 -100 53 -266 5
-266 -22 0 -94 75 -218 226 -104 127 -168 191 -252 249 l-40 28 74 -7 c40 -3
94 -11 120 -17z m199 -593 c54 -58 102 -156 173 -349 l58 -158 -40 -36 c-42
-38 -78 -99 -99 -168 -7 -24 -15 -144 -20 -300 -8 -294 -26 -399 -102 -610
-22 -60 -53 -148 -70 -195 -19 -53 -33 -112 -36 -157 l-5 -73 -142 0 -142 0
14 63 c15 59 13 249 -2 288 -4 10 9 19 43 31 59 21 133 85 167 143 38 64 58
173 50 272 -9 123 -38 208 -59 174 -3 -4 -10 -59 -16 -122 -25 -270 -83 -349
-291 -393 l-26 -6 24 -107 c29 -134 43 -343 22 -344 -8 0 -86 0 -173 0 l-159
0 -1 69 c-1 90 -25 126 -153 230 -54 44 -114 96 -132 116 -38 39 -51 44 -51
21 0 -36 55 -119 139 -209 49 -53 92 -108 95 -121 4 -14 2 -44 -4 -65 l-11
-40 -108 0 -108 0 -7 63 c-12 103 -44 255 -82 390 -20 70 -35 129 -33 130 9 5
238 62 394 98 290 66 386 108 495 218 81 82 141 194 177 329 28 103 27 90 20
527 l-2 110 75 112 c41 62 78 112 81 113 4 0 25 -20 47 -44z m-1987 -96 c19
-11 27 -60 10 -60 -9 0 -51 52 -51 64 0 9 19 7 41 -4z m892 -88 c33 -29 14
-72 -32 -72 -29 0 -61 26 -61 51 0 23 37 49 59 42 9 -3 24 -13 34 -21z m-1079
-789 c13 -27 43 -67 66 -90 l43 -43 -37 -45 c-21 -25 -41 -45 -45 -45 -23 0
-62 47 -80 95 -32 85 -36 150 -15 225 l18 64 13 -57 c7 -31 23 -78 37 -104z
m224 -300 c26 -21 82 -54 124 -73 43 -19 77 -38 78 -41 0 -8 -68 -39 -88 -39
-37 0 -120 49 -160 95 -45 51 -49 64 -30 83 18 18 24 16 76 -25z m1242 -1019
c100 -7 150 -20 168 -46 18 -25 27 -23 71 13 37 29 42 31 167 36 152 6 236 -6
273 -41 15 -13 40 -31 58 -40 17 -8 41 -28 52 -43 11 -16 25 -34 31 -40 6 -7
15 -23 20 -35 5 -13 9 -17 9 -10 1 6 5 12 11 12 5 0 9 -3 7 -8 -1 -4 7 -19 18
-33 18 -23 22 -24 34 -11 12 12 33 82 55 185 l6 27 98 0 98 0 12 -72 c14 -90
30 -251 37 -381 4 -80 2 -99 -10 -103 -18 -7 -20 -80 -4 -139 7 -22 14 -100
18 -173 5 -121 5 -132 -11 -132 -19 0 -21 -10 -12 -58 4 -18 14 -34 25 -37 25
-8 24 -22 -1 -30 -24 -8 -27 -56 -7 -95 14 -26 15 -26 59 -16 20 4 27 2 30
-10 3 -14 6 -14 27 3 19 16 24 31 28 89 3 48 1 74 -9 87 -10 13 -12 45 -7 135
3 64 4 121 1 127 -13 22 -4 116 12 134 21 23 23 111 2 111 -8 0 -13 7 -11 18
2 9 6 82 9 162 2 80 10 188 16 240 19 156 5 140 120 140 l100 0 0 -40 c0 -21
4 -72 10 -112 5 -40 12 -100 16 -133 7 -58 7 -59 17 -27 11 36 27 43 27 11 0
-11 5 -19 11 -17 18 6 35 63 59 196 l23 123 101 -3 101 -3 6 -110 c4 -60 6
-191 6 -290 -4 -563 0 -780 14 -810 19 -40 59 -47 59 -11 0 14 4 26 10 26 5 0
7 7 4 15 -4 8 -1 15 5 15 6 0 10 -5 9 -12 -5 -22 55 -41 144 -46 48 -3 88 -9
88 -14 0 -5 9 -4 20 2 13 7 26 7 38 1 17 -9 18 16 20 552 1 309 5 590 8 625
l6 62 99 0 c57 0 100 -4 104 -10 4 -6 9 -232 12 -503 5 -523 13 -665 37 -701
13 -20 28 -24 130 -35 63 -6 122 -14 131 -17 12 -5 15 -24 15 -89 0 -78 -2
-84 -22 -91 -12 -4 -91 -7 -175 -6 -111 0 -153 -3 -156 -12 -4 -9 -24 -10 -83
-4 -91 10 -116 27 -135 94 -8 24 -16 44 -20 44 -4 0 -10 -17 -14 -37 -7 -44
-29 -73 -68 -91 -33 -14 -199 -16 -213 -2 -5 5 -70 11 -144 12 l-135 3 -13 50
c-6 28 -15 75 -18 105 -4 30 -12 69 -19 85 -7 17 -15 38 -18 47 -11 32 -43 9
-55 -40 -19 -71 -61 -152 -99 -188 -18 -18 -59 -42 -91 -54 -31 -12 -59 -26
-63 -31 -8 -13 -122 -21 -129 -9 -3 6 -33 15 -65 21 -76 14 -124 39 -163 84
-34 37 -66 94 -59 101 2 2 -1 28 -8 57 -11 50 -13 52 -47 55 -35 3 -36 2 -53
-50 -10 -29 -22 -59 -28 -65 -7 -10 -3 -13 14 -13 24 -1 24 -1 3 -13 -11 -7
-38 -31 -59 -55 -55 -62 -108 -84 -236 -97 -31 -3 -70 -10 -87 -15 -17 -4 -39
-7 -49 -5 -10 3 -43 6 -73 8 -101 7 -118 31 -127 179 -5 69 -2 98 11 132 13
33 16 63 12 117 -5 67 -9 76 -43 113 -21 22 -41 42 -45 44 -5 2 -8 10 -8 18 0
10 -5 12 -12 8 -10 -6 -10 -4 0 8 10 13 10 17 -3 22 -11 4 -14 2 -9 -7 5 -9 4
-9 -6 0 -10 10 -11 15 -1 27 10 12 9 14 -7 9 -15 -4 -19 1 -20 24 -1 15 -2 41
-4 57 -2 19 2 31 12 34 12 4 13 2 3 -9 -8 -10 -9 -20 -3 -29 8 -12 10 -11 10
5 0 11 13 -7 28 -40 15 -33 43 -82 62 -110 l35 -50 3 62 c2 52 -1 70 -22 105
-37 63 -78 109 -101 112 -17 3 -20 11 -20 65 -1 43 -5 65 -15 71 -11 7 -12 12
-4 20 8 8 17 4 33 -16 12 -15 24 -24 27 -21 4 3 -5 17 -20 30 -20 19 -23 26
-13 38 7 7 2 5 -10 -5 -26 -22 -31 -11 -7 15 9 11 11 19 5 23 -5 4 -15 -2 -20
-13 -14 -25 -34 -155 -28 -183 2 -13 5 -4 6 20 1 57 21 54 21 -5 0 -25 3 -44
6 -40 8 8 33 -16 27 -26 -3 -4 -12 -2 -20 4 -12 11 -14 10 -13 -2 5 -31 -1
-60 -10 -54 -11 7 -14 -8 -3 -19 11 -10 12 -36 2 -36 -9 0 -13 15 -10 33 1 5
-4 7 -11 5 -7 -3 -24 6 -38 19 -61 59 -63 57 -57 -64 12 -219 2 -601 -18 -660
-3 -9 -31 -13 -94 -13 -78 0 -92 3 -100 19 -15 27 -35 755 -22 759 6 2 11 25
11 51 0 38 -8 60 -47 121 -25 41 -47 82 -48 90 -1 8 -9 31 -18 50 -8 19 -21
63 -28 98 -10 51 -16 65 -35 72 -30 12 -38 45 -29 125 6 55 10 65 26 65 10 0
19 7 19 15 0 11 13 15 53 16 28 0 66 2 84 5 25 3 33 0 38 -17 6 -17 14 -20 63
-17 51 3 57 5 54 24 -2 17 2 20 30 17 18 -2 71 -6 118 -9z m-1119 -24 c54 -10
112 -34 137 -57 7 -7 16 -13 20 -13 4 0 20 -11 36 -25 16 -13 33 -22 37 -19 5
3 9 -3 10 -13 0 -13 2 -14 6 -3 3 8 14 23 24 33 16 18 17 17 25 -25 l8 -43 10
75 11 75 100 0 100 0 12 -55 c16 -68 16 -193 1 -702 -9 -325 -9 -410 2 -468
11 -57 11 -83 1 -140 -7 -38 -16 -72 -20 -74 -34 -21 -196 -13 -205 10 -5 12
-10 62 -36 332 -11 111 -24 171 -37 158 -9 -9 -34 15 -26 27 3 6 1 7 -5 3 -7
-4 -12 -2 -12 4 0 11 -46 4 -65 -10 -5 -4 -44 -18 -85 -30 -82 -25 -171 -66
-182 -84 -17 -25 -29 -89 -43 -232 -8 -84 -18 -159 -21 -168 -5 -12 -21 -16
-73 -17 -87 -1 -125 1 -133 9 -17 18 -30 345 -29 777 0 447 10 647 32 661 37
22 304 32 400 14z m5989 -8 c23 -11 45 -35 65 -71 31 -56 65 -80 84 -58 5 7
19 38 31 69 20 53 23 57 61 63 22 4 66 4 98 0 l58 -7 10 -43 c16 -68 18 -170
18 -760 0 -618 -2 -639 -59 -649 -84 -14 -152 -18 -213 -11 -70 7 -82 15 -141
94 -13 17 -27 29 -31 26 -5 -2 -11 16 -15 41 -8 61 -36 121 -47 102 -5 -8 -11
-64 -15 -124 -4 -60 -12 -112 -18 -116 -6 -4 -47 -8 -91 -8 -44 0 -85 4 -91 8
-6 4 -16 41 -22 82 -18 116 -34 184 -46 192 -18 13 -36 9 -36 -7 0 -8 -4 -15
-9 -15 -5 0 -12 -17 -16 -37 -4 -21 -10 -40 -14 -43 -4 -3 -16 -24 -27 -47
-12 -23 -34 -53 -50 -66 -35 -29 -107 -67 -129 -67 -8 0 -15 -6 -15 -14 0 -39
-222 -26 -310 19 -51 26 -113 83 -104 96 3 5 -2 6 -10 3 -11 -4 -16 0 -16 11
0 9 -4 13 -10 10 -5 -3 -10 0 -10 8 0 9 -11 14 -30 15 -26 1 -30 -3 -30 -26 0
-43 -20 -106 -38 -119 -10 -8 -48 -13 -100 -13 -83 0 -85 1 -115 34 -18 19
-42 48 -55 65 -30 40 -64 41 -91 2 -12 -16 -21 -35 -21 -43 0 -7 -7 -22 -16
-33 -12 -16 -29 -20 -89 -23 -41 -2 -86 -1 -100 2 -25 6 -57 54 -62 91 -1 11
-6 58 -12 104 -5 47 -8 87 -6 90 5 9 18 151 17 181 -10 215 -10 256 3 276 10
16 15 89 20 295 3 151 8 307 11 347 l6 72 76 1 c43 1 111 3 152 5 100 3 184
-11 247 -42 68 -33 101 -66 140 -138 37 -71 66 -88 82 -48 6 15 19 70 29 122
l19 95 101 3 c56 1 102 0 102 -4 0 -3 7 -60 15 -127 16 -137 35 -414 35 -526
0 -64 -2 -72 -15 -61 -13 11 -15 2 -15 -71 0 -48 6 -95 13 -109 7 -14 14 -65
16 -115 3 -96 6 -108 22 -85 9 13 10 13 6 -1 -6 -18 25 -49 48 -49 29 0 36 40
36 215 0 142 4 181 17 207 23 47 23 108 0 108 -10 0 -18 5 -18 10 0 6 6 10 13
10 9 0 9 2 0 8 -6 4 -10 25 -8 47 15 219 28 375 38 450 l13 90 99 0 100 0 7
-55 c4 -30 11 -93 17 -140 6 -46 13 -127 17 -180 3 -52 8 -99 11 -103 2 -4 8
-87 13 -185 7 -159 26 -278 49 -319 4 -7 6 157 5 365 -2 300 -5 390 -17 442
l-16 65 37 60 c24 37 47 62 62 66 14 4 75 7 135 8 86 1 118 -3 145 -17z
m-4788 -784 c-8 -8 -9 -4 -5 13 4 13 8 18 11 10 2 -7 -1 -18 -6 -23z m1828
-1010 c2 -47 14 -152 31 -263 30 -198 33 -298 15 -529 -11 -130 -16 -282 -14
-400 3 -217 1 -227 -65 -256 -69 -30 -342 -59 -431 -46 -61 9 -60 24 8 113 66
88 109 188 135 318 42 211 36 369 -21 630 -26 119 -31 161 -31 280 -1 78 3
146 7 153 11 18 366 17 366 0z m990 -92 c0 -122 -8 -149 -51 -175 -84 -51
-329 -75 -396 -38 -23 12 -33 25 -33 41 0 28 16 47 93 111 32 27 69 68 83 91
l25 43 62 -5 c50 -4 69 -2 97 15 19 11 54 20 78 20 l42 1 0 -104z m1770 -186
c45 -45 52 -47 88 -22 70 48 86 33 80 -76 -5 -86 -30 -144 -94 -216 -30 -35
-40 -40 -89 -44 -30 -2 -75 -1 -100 2 -44 7 -45 8 -45 42 0 19 9 81 21 137 13
61 19 123 17 154 -5 57 -2 61 50 62 26 1 41 -8 72 -39z m-4900 -118 c0 -5 -14
-33 -31 -63 -17 -30 -28 -47 -26 -38 3 9 9 37 12 63 6 36 11 46 26 46 11 0 19
-4 19 -8z m-243 -677 c-11 -55 -22 -101 -23 -103 -4 -6 -81 37 -94 53 -13 15
-11 20 15 38 17 11 50 42 75 67 25 26 46 46 46 46 1 -1 -8 -46 -19 -101z"/>
<path d="M3305 4353 c-49 -11 -49 -13 -18 -46 50 -54 75 -105 62 -129 -7 -12
-7 -18 -1 -14 6 3 12 3 15 -1 2 -5 2 -2 1 5 -7 27 7 9 30 -41 14 -29 39 -63
56 -75 17 -13 28 -27 25 -32 -3 -6 1 -7 9 -4 22 8 21 13 -25 151 -58 175 -81
203 -154 186z"/>
<path d="M4146 3926 c-4 -15 2 -46 14 -77 12 -28 19 -53 18 -55 -2 -1 -19 10
-37 27 -19 16 -41 29 -50 29 -13 0 -13 -2 -2 -9 11 -7 10 -10 -5 -14 -15 -4
-16 -5 -2 -6 9 0 20 -10 23 -21 3 -11 11 -20 16 -20 5 0 9 -7 9 -15 0 -8 5
-15 10 -15 6 0 10 -6 10 -14 0 -25 45 -70 63 -63 12 4 15 21 15 72 0 53 -6 78
-34 135 -18 39 -35 70 -38 70 -2 0 -7 -11 -10 -24z"/>
<path d="M3786 3408 c3 -35 9 -67 13 -71 5 -5 25 -5 46 -1 26 4 33 9 23 15 -9
6 -9 9 -1 9 7 0 17 8 22 19 9 16 3 23 -42 52 -29 19 -55 35 -59 37 -4 2 -5
-25 -2 -60z"/>
<path d="M6623 4271 c-3 -11 -10 -18 -16 -15 -7 2 -13 -6 -14 -18 -1 -13 -6
-54 -11 -93 -7 -56 -5 -83 9 -143 17 -69 44 -121 62 -122 5 0 5 4 2 10 -3 5 0
7 9 4 34 -13 60 194 32 260 -9 21 -16 51 -16 67 0 32 -18 48 -31 28 -7 -12 -9
-11 -10 1 -1 8 -1 21 0 28 3 19 -10 14 -16 -7z"/>
<path d="M6946 3783 c-6 -19 -27 -54 -37 -63 -21 -18 -16 -41 14 -61 18 -13
51 -40 74 -61 24 -21 46 -38 50 -38 11 0 3 161 -9 183 -9 17 -65 57 -79 57 -4
0 -9 -8 -13 -17z"/>
<path d="M7305 3417 c6 -62 17 -107 26 -101 5 3 9 1 9 -4 0 -16 54 -31 72 -21
22 12 13 38 -28 84 -19 21 -34 42 -34 45 0 4 -11 12 -24 18 -23 10 -24 9 -21
-21z"/>
</g>
</svg>
